<!-- public/icon/lightbulb.svg -->
<svg xmlns="http://www.w3.org/2000/svg" viewBox="0 0 24 24" fill="#facc15" width="48" height="48">
  <path d="M12 2C7.03 2 3 6.03 3 11c0 2.39 1.07 4.53 2.78 6.03.18.15.29.37.29.6v1.52c0 .83.67 1.5 1.5 1.5h1v.85c0 .3.25.55.55.55h6.36c.3 0 .55-.25.55-.55v-.85h1c.83 0 1.5-.67 1.5-1.5v-1.52c0-.23.11-.45.29-.6C19.93 15.53 21 13.39 21 11c0-4.97-4.03-9-9-9zm1 17h-2v-1h2v1zm3-2H8v-1.5h8V17zm.2-3H8.8c-.38 0-.72-.23-.85-.58-.21-.53-.38-1.1-.48-1.69-.1-.61-.16-1.26-.16-1.93C7.31 7.43 9.57 5 12 5s4.69 2.43 4.69 5.8c0 .67-.06 1.32-.16 1.93-.1.59-.27 1.16-.48 1.69-.13.35-.47.58-.85.58z"/>
</svg>
